<?xml version="1.0" encoding="utf-8"?>
<!-- Generator: Adobe Illustrator 18.0.0, SVG Export Plug-In . SVG Version: 6.00 Build 0)  -->
<!DOCTYPE svg PUBLIC "-//W3C//DTD SVG 1.1//EN" "http://www.w3.org/Graphics/SVG/1.1/DTD/svg11.dtd">
<svg version="1.1" id="Layer_1" xmlns="http://www.w3.org/2000/svg" xmlns:xlink="http://www.w3.org/1999/xlink" x="0px" y="0px"
	 viewBox="0 0 306.7 20" enable-background="new 0 0 306.7 20" xml:space="preserve">
<circle fill="none" stroke="#054085" stroke-miterlimit="10" cx="9.8" cy="10" r="9.1"/>
<g enable-background="new    ">
	<path fill="#054085" d="M31.8,5.7h6.7v1h-5.6v3.5h5.4v1h-5.4V16h-1.1V5.7z"/>
	<path fill="#054085" d="M40.3,5.7h1.1V16h-1.1V5.7z"/>
	<path fill="#054085" d="M43.9,5.7h1.2l6.2,8.5V5.7h1.1V16h-1l-6.4-8.8V16h-1.1V5.7z"/>
	<path fill="#054085" d="M54.8,5.7h3.4c3.9,0,5.3,1.2,5.3,5.2c0,3.9-1.6,5.2-5.5,5.2h-3.2V5.7z M58,15c3.3,0,4.3-1.1,4.3-4.2
		c0-3.1-0.9-4.1-4.2-4.1h-2.3V15H58z"/>
	<path fill="#054085" d="M68,10.8c0-3.7,1.9-5.3,5.2-5.3c3.3,0,5.2,1.6,5.2,5.3c0,3.7-1.9,5.3-5.2,5.3C69.8,16.2,68,14.5,68,10.8z
		 M77.3,10.8c0-2.8-1.3-4.3-4.1-4.3c-2.8,0-4.1,1.5-4.1,4.3c0,2.8,1.3,4.3,4.1,4.3C76,15.2,77.3,13.7,77.3,10.8z"/>
	<path fill="#054085" d="M80.1,12.3V5.7h1.1v6.5c0,1.8,0.6,3,3.2,3c2.6,0,3.2-1.2,3.2-3V5.7h1.1v6.6c0,2.1-0.6,3.9-4.3,3.9
		C80.7,16.2,80.1,14.3,80.1,12.3z"/>
	<path fill="#054085" d="M94,6.7h-3.9v-1H99v1h-3.9V16H94V6.7z"/>
	<path fill="#054085" d="M103.9,5.7h1.4l3.7,8.8l3.8-8.8h1.4V16h-1.1V7.5l-3.6,8.5h-0.9l-3.6-8.5V16h-1V5.7z"/>
	<path fill="#054085" d="M116.1,10.8c0-3.7,1.9-5.3,5.2-5.3c3.3,0,5.2,1.6,5.2,5.3c0,3.7-1.9,5.3-5.2,5.3
		C117.9,16.2,116.1,14.5,116.1,10.8z M125.4,10.8c0-2.8-1.3-4.3-4.1-4.3c-2.8,0-4.1,1.5-4.1,4.3c0,2.8,1.3,4.3,4.1,4.3
		C124.1,15.2,125.4,13.7,125.4,10.8z"/>
	<path fill="#054085" d="M132.5,11.8h-3.1V16h-1.1V5.7h4.5c2.4,0,3.5,1,3.5,3c0,1.8-0.9,2.8-2.7,3.1l2.5,4.3h-1.2L132.5,11.8z
		 M132.8,10.8c1.5,0,2.4-0.4,2.4-2.1c0-1.6-0.9-2.1-2.4-2.1h-3.4v4.1H132.8z"/>
	<path fill="#054085" d="M138.3,5.7h6.8v1h-5.7v3.4h5.6v1h-5.6V15h5.8v1h-6.9V5.7z"/>
</g>
<circle fill="none" stroke="#054085" stroke-miterlimit="10" cx="168.8" cy="10" r="9.1"/>
<g enable-background="new    ">
	<path fill="#3396CA" d="M190.8,5.7h6.7v1h-5.6v3.5h5.4v1h-5.4V16h-1.1V5.7z"/>
	<path fill="#3396CA" d="M199.3,5.7h1.1V16h-1.1V5.7z"/>
	<path fill="#3396CA" d="M202.9,5.7h1.2l6.2,8.5V5.7h1.1V16h-1l-6.4-8.8V16h-1.1V5.7z"/>
	<path fill="#3396CA" d="M213.8,5.7h3.4c3.9,0,5.3,1.2,5.3,5.2c0,3.9-1.6,5.2-5.5,5.2h-3.2V5.7z M217,15c3.3,0,4.3-1.1,4.3-4.2
		c0-3.1-0.9-4.1-4.2-4.1h-2.3V15H217z"/>
	<path fill="#3396CA" d="M227,10.8c0-3.7,1.9-5.3,5.2-5.3c3.3,0,5.2,1.6,5.2,5.3c0,3.7-1.9,5.3-5.2,5.3
		C228.8,16.2,227,14.5,227,10.8z M236.3,10.8c0-2.8-1.3-4.3-4.1-4.3c-2.8,0-4.1,1.5-4.1,4.3c0,2.8,1.3,4.3,4.1,4.3
		C235,15.2,236.3,13.7,236.3,10.8z"/>
	<path fill="#3396CA" d="M239.1,12.3V5.7h1.1v6.5c0,1.8,0.6,3,3.2,3c2.6,0,3.2-1.2,3.2-3V5.7h1.1v6.6c0,2.1-0.6,3.9-4.3,3.9
		C239.7,16.2,239.1,14.3,239.1,12.3z"/>
	<path fill="#3396CA" d="M253,6.7h-3.9v-1h8.9v1h-3.9V16H253V6.7z"/>
	<path fill="#3396CA" d="M262.9,5.7h1.4l3.7,8.8l3.8-8.8h1.4V16h-1.1V7.5l-3.6,8.5h-0.9l-3.6-8.5V16h-1V5.7z"/>
	<path fill="#3396CA" d="M275.1,10.8c0-3.7,1.9-5.3,5.2-5.3c3.3,0,5.2,1.6,5.2,5.3c0,3.7-1.9,5.3-5.2,5.3
		C276.9,16.2,275.1,14.5,275.1,10.8z M284.4,10.8c0-2.8-1.3-4.3-4.1-4.3c-2.8,0-4.1,1.5-4.1,4.3c0,2.8,1.3,4.3,4.1,4.3
		C283.1,15.2,284.4,13.7,284.4,10.8z"/>
	<path fill="#3396CA" d="M291.5,11.8h-3.1V16h-1.1V5.7h4.5c2.4,0,3.5,1,3.5,3c0,1.8-0.9,2.8-2.7,3.1l2.5,4.3h-1.2L291.5,11.8z
		 M291.8,10.8c1.5,0,2.4-0.4,2.4-2.1c0-1.6-0.9-2.1-2.4-2.1h-3.4v4.1H291.8z"/>
	<path fill="#3396CA" d="M297.3,5.7h6.8v1h-5.7v3.4h5.6v1h-5.6V15h5.8v1h-6.9V5.7z"/>
</g>
</svg>
