<?xml version="1.0" encoding="utf-8"?>
<!-- Generator: Adobe Illustrator 18.0.0, SVG Export Plug-In . SVG Version: 6.00 Build 0)  -->
<!DOCTYPE svg PUBLIC "-//W3C//DTD SVG 1.1//EN" "http://www.w3.org/Graphics/SVG/1.1/DTD/svg11.dtd">
<svg version="1.1" id="Layer_1" xmlns="http://www.w3.org/2000/svg" xmlns:xlink="http://www.w3.org/1999/xlink" x="0px" y="0px"
	 width="100px" height="8px" viewBox="0 0 100 8" enable-background="new 0 0 100 8" xml:space="preserve">
<g>
	<circle fill="none" stroke="#054085" stroke-miterlimit="10" cx="3.5" cy="4" r="3"/>
	<g enable-background="new    ">
		<path fill="#054085" d="M10.7,2.6h2.2v0.3H11v1.1h1.8v0.3H11V6h-0.4C10.7,6,10.7,2.6,10.7,2.6z"/>
		<path fill="#054085" d="M13.4,2.6h0.4V6h-0.4V2.6z"/>
		<path fill="#054085" d="M14.6,2.6H15l2,2.8V2.6h0.4V6h-0.3L15,3.1V6h-0.4V2.6z"/>
		<path fill="#054085" d="M18.2,2.6h1.1C20.5,2.6,21,3,21,4.3C21,5.6,20.5,6,19.2,6h-1V2.6z M19.2,5.6c1.1,0,1.4-0.4,1.4-1.4
			s-0.3-1.3-1.4-1.3h-0.7v2.7H19.2z"/>
		<path fill="#054085" d="M22.5,4.3c0-1.2,0.6-1.7,1.7-1.7c1.1,0,1.7,0.5,1.7,1.7S25.2,6,24.2,6C23.1,6,22.5,5.5,22.5,4.3z
			 M25.5,4.3c0-0.9-0.4-1.4-1.3-1.4c-0.9,0-1.3,0.5-1.3,1.4s0.4,1.4,1.3,1.4C25.1,5.7,25.5,5.2,25.5,4.3z"/>
		<path fill="#054085" d="M26.4,4.7V2.6h0.4v2.1c0,0.6,0.2,1,1,1c0.8,0,1-0.4,1-1V2.6h0.4v2.2C29.2,5.4,29,6,27.8,6
			C26.6,6,26.4,5.4,26.4,4.7z"/>
		<path fill="#054085" d="M30.9,2.9h-1.3V2.6h2.9v0.3h-1.3v3h-0.4V2.9z"/>
		<path fill="#054085" d="M34.2,2.6h0.5l1.2,2.9l1.2-2.9h0.5V6h-0.4V3.2L36,6h-0.3l-1.2-2.8V6h-0.3L34.2,2.6L34.2,2.6z"/>
		<path fill="#054085" d="M38.1,4.3c0-1.2,0.6-1.7,1.7-1.7s1.7,0.5,1.7,1.7S40.9,6,39.8,6C38.7,6,38.1,5.5,38.1,4.3z M41.2,4.3
			c0-0.9-0.4-1.4-1.3-1.4c-0.9,0-1.3,0.5-1.3,1.4s0.4,1.4,1.3,1.4C40.8,5.7,41.2,5.2,41.2,4.3z"/>
		<path fill="#054085" d="M43.5,4.6h-1V6h-0.4V2.6h1.5c0.8,0,1.1,0.3,1.1,1c0,0.6-0.3,0.9-0.9,1L44.7,6h-0.4L43.5,4.6z M43.6,4.3
			c0.5,0,0.8-0.1,0.8-0.7c0-0.5-0.3-0.7-0.8-0.7h-1.1v1.3L43.6,4.3L43.6,4.3z"/>
		<path fill="#054085" d="M45.4,2.6h2.2v0.3h-1.9V4h1.8v0.3h-1.8v1.3h1.9V6h-2.2C45.4,6,45.4,2.6,45.4,2.6z"/>
	</g>
	<circle fill="none" stroke="#054085" stroke-miterlimit="10" cx="55.3" cy="4" r="3"/>
	<g enable-background="new    ">
		<path fill="#3396CA" d="M62.5,2.6h2.2v0.3h-1.8v1.1h1.8v0.3h-1.8V6h-0.4C62.5,6,62.5,2.6,62.5,2.6z"/>
		<path fill="#3396CA" d="M65.3,2.6h0.4V6h-0.4V2.6z"/>
		<path fill="#3396CA" d="M66.4,2.6h0.4l2,2.8V2.6h0.4V6h-0.3l-2.1-2.9V6h-0.4V2.6z"/>
		<path fill="#3396CA" d="M70,2.6h1.1c1.3,0,1.7,0.4,1.7,1.7C72.8,5.6,72.3,6,71,6h-1V2.6z M71,5.6c1.1,0,1.4-0.4,1.4-1.4
			s-0.3-1.3-1.4-1.3h-0.7v2.7H71z"/>
		<path fill="#3396CA" d="M74.3,4.3c0-1.2,0.6-1.7,1.7-1.7c1.1,0,1.7,0.5,1.7,1.7S77.1,6,76,6C74.9,6,74.3,5.5,74.3,4.3z M77.3,4.3
			c0-0.9-0.4-1.4-1.3-1.4c-0.9,0-1.3,0.5-1.3,1.4s0.4,1.4,1.3,1.4C76.9,5.7,77.3,5.2,77.3,4.3z"/>
		<path fill="#3396CA" d="M78.3,4.7V2.6h0.4v2.1c0,0.6,0.2,1,1,1s1-0.4,1-1V2.6h0.4v2.2c0,0.7-0.2,1.3-1.4,1.3
			C78.4,6,78.3,5.4,78.3,4.7z"/>
		<path fill="#3396CA" d="M82.8,2.9h-1.3V2.6h2.9v0.3h-1.3v3h-0.4V2.9z"/>
		<path fill="#3396CA" d="M86,2.6h0.5l1.2,2.9l1.2-2.9h0.5V6H89V3.2L87.8,6h-0.3l-1.2-2.8V6H86L86,2.6L86,2.6z"/>
		<path fill="#3396CA" d="M90,4.3c0-1.2,0.6-1.7,1.7-1.7c1.1,0,1.7,0.5,1.7,1.7S92.8,6,91.7,6C90.6,6,90,5.5,90,4.3z M93,4.3
			c0-0.9-0.4-1.4-1.3-1.4c-0.9,0-1.3,0.5-1.3,1.4s0.4,1.4,1.3,1.4C92.6,5.7,93,5.2,93,4.3z"/>
		<path fill="#3396CA" d="M95.3,4.6h-1V6H94V2.6h1.5c0.8,0,1.1,0.3,1.1,1c0,0.6-0.3,0.9-0.9,1L96.5,6h-0.4L95.3,4.6z M95.4,4.3
			c0.5,0,0.8-0.1,0.8-0.7c0-0.5-0.3-0.7-0.8-0.7h-1.1v1.3L95.4,4.3L95.4,4.3z"/>
		<path fill="#3396CA" d="M97.2,2.6h2.2v0.3h-1.9V4h1.8v0.3h-1.8v1.3h1.9V6h-2.2C97.2,6,97.2,2.6,97.2,2.6z"/>
	</g>
</g>
</svg>
