<?xml version="1.0" encoding="utf-8"?>
<!-- Generator: Adobe Illustrator 18.0.0, SVG Export Plug-In . SVG Version: 6.00 Build 0)  -->
<!DOCTYPE svg PUBLIC "-//W3C//DTD SVG 1.1//EN" "http://www.w3.org/Graphics/SVG/1.1/DTD/svg11.dtd">
<svg version="1.1" id="Layer_1" xmlns="http://www.w3.org/2000/svg" xmlns:xlink="http://www.w3.org/1999/xlink" x="0px" y="0px"
	 viewBox="0 0 100 20" enable-background="new 0 0 100 20" xml:space="preserve">
<g>
	<polygon fill="#1C4688" points="17.5,2.5 22.2,2.5 22.2,4.6 19.7,4.6 19.7,8.9 22.1,8.9 22.1,11 19.7,11 19.7,17.3 17.5,17.3 	"/>
	<path fill="#1C4688" d="M26.4,16.6c-0.8-1-0.8-2.7-0.8-6.7c0-3.9,0-5.7,0.8-6.6c0.5-0.6,1.2-0.8,2.4-0.8c1.1,0,1.9,0.2,2.4,0.8
		C32,4.3,32,6.1,32,10c0,4.3,0,5.9-0.8,6.8c-0.4,0.5-1.2,0.7-2.4,0.7C27.6,17.4,26.8,17.2,26.4,16.6 M29.7,9.9c0-5,0-5.4-0.9-5.4
		s-0.9,0.3-0.9,5.4s0,5.4,0.9,5.4S29.7,15,29.7,9.9"/>
	<path fill="#1C4688" d="M36.3,16.6c-0.9-1-0.9-2.8-0.9-6.7s0-5.6,0.8-6.6c0.5-0.6,1.4-0.8,2.5-0.8c0.8,0,1.5,0.1,1.7,0.2L40,4.8
		c-0.3-0.1-0.9-0.1-1.2-0.1c-1.1,0-1.1,0.5-1.1,5.4c0,5.1,0,5.4,1.1,5.4c0.4,0,1-0.1,1.2-0.2l0.5,1.9c-0.4,0.1-1.1,0.3-1.8,0.3
		C37.6,17.4,36.8,17.2,36.3,16.6"/>
	<path fill="#1C4688" d="M44,13.2V2.5h2.3v10.7c0,1.7,0,2.1,0.8,2.1s0.9-0.4,0.9-2.1V2.5h2.2v10.7c0,2.7-0.2,4.2-3.1,4.2
		C44.2,17.4,44,16,44,13.2"/>
	<path fill="#1C4688" d="M53.6,17.2l0.5-2c0.4,0.1,1.2,0.2,1.6,0.2c1,0,1.2-0.5,0.8-1.7l-2.3-6.8c-0.7-2-0.5-4.5,2.7-4.5
		c0.5,0,1.3,0,1.8,0.1l-0.5,2.1c-0.3-0.1-0.8-0.1-1.1-0.1c-1.1,0-1.2,0.7-0.8,1.7l2.2,6.3c0.8,2.2,1,4.8-2.6,4.8
		C55.1,17.4,54.2,17.3,53.6,17.2"/>
	<path fill="#0BBEE6" d="M67.9,2.5H71c2.5,0,2.8,1.6,2.8,4.6c0,2.4-0.1,3.7-1.2,4.4l1.1,5.8h-2.2l-1-5.3h-0.4v5.3h-2.2
		C67.9,17.4,67.9,2.5,67.9,2.5z M70.7,10c0.8,0,0.8-0.7,0.8-2.7c0-2.1,0-2.7-0.8-2.7h-0.6V10H70.7z"/>
	<path fill="#0BBEE6" d="M77.2,17.2l0.5-2c0.4,0.1,1.2,0.2,1.6,0.2c1,0,1.2-0.5,0.8-1.7l-2.3-6.8c-0.7-2-0.5-4.5,2.7-4.5
		c0.5,0,1.3,0,1.8,0.1l-0.5,2.1c-0.3-0.1-0.8-0.1-1.1-0.1c-1.1,0-1.2,0.7-0.8,1.7l2.2,6.3c0.8,2.2,1,4.8-2.6,4.8
		C78.6,17.4,77.7,17.3,77.2,17.2"/>
</g>
</svg>
