<?xml version="1.0" encoding="utf-8"?>
<!-- Generator: Adobe Illustrator 18.0.0, SVG Export Plug-In . SVG Version: 6.00 Build 0)  -->
<!DOCTYPE svg PUBLIC "-//W3C//DTD SVG 1.1//EN" "http://www.w3.org/Graphics/SVG/1.1/DTD/svg11.dtd">
<svg version="1.1" id="Layer_1" xmlns="http://www.w3.org/2000/svg" xmlns:xlink="http://www.w3.org/1999/xlink" x="0px" y="0px"
	 viewBox="0 0 100 26" enable-background="new 0 0 100 26" xml:space="preserve">
<g>
	<polygon fill="#00457F" points="2,1.2 6.4,1.2 7.6,12.3 7.8,14.9 8,12.3 9.3,1.2 13.7,1.2 13.7,24.2 10.4,24.2 10.4,9.6 10.2,13 
		8.9,24.2 6.6,24.2 5.3,13 5.1,9.6 5.1,24.2 2,24.2 	"/>
	<path fill="#00457F" d="M19.4,17.9V1.2h3.4V18c0,2.6,0,3.2,1.3,3.2c1.2,0,1.3-0.7,1.3-3.2V1.2h3.2v16.7c0,4.2-0.3,6.6-4.6,6.5
		C19.6,24.4,19.4,22.1,19.4,17.9"/>
	<path fill="#00457F" d="M33.7,24l0.7-3.1c0.6,0.1,1.8,0.3,2.5,0.3c1.5,0,1.8-0.8,1.1-2.7L34.5,8c-1.1-3.2-0.7-7,4.1-7
		c0.8,0,2,0.1,2.7,0.2l-0.8,3.3c-0.4-0.1-1.2-0.1-1.6-0.1c-1.6,0-1.8,1.1-1.3,2.6l3.3,9.9c1.2,3.4,1.5,7.5-3.9,7.5
		C35.8,24.4,34.4,24.2,33.7,24"/>
	<polygon fill="#00457F" points="49,4.4 46.6,4.4 46.6,1.2 55,1.2 55,4.4 52.4,4.4 52.4,24.2 49,24.2 	"/>
	<path fill="#00457F" d="M61.8,1.1h3.9l3.2,23.1h-3.4l-0.5-3.9h-2.6l-0.4,3.9h-3.3L61.8,1.1z M62.7,17h1.8L64,12.5L63.7,8l-0.4,4.5
		L62.7,17z"/>
	<polygon fill="#00457F" points="74.1,1.2 77.7,1.2 79.5,9.4 80.1,12.6 80.1,1.2 83.3,1.2 83.3,24.2 80.1,24.2 77.8,14.3 77.2,11.4 
		77.2,24.2 74.1,24.2 	"/>
	<path fill="#00457F" d="M90.1,23.3c-1.3-1.6-1.3-4.2-1.3-10.6c0-6.1,0-8.8,1.2-10.4c0.7-0.9,2.1-1.3,3.7-1.3c1.3,0,2.6,0.1,3.6,0.4
		l-0.7,3.2C96,4.4,95,4.3,94,4.3c-1.9,0-1.9,0.8-1.9,8.4c0,7.5,0,8.7,1.4,8.7c1.3,0,1.2-0.8,1.2-4.5v-3H93v-3.2h4.9v5.9
		c0,3.7-0.2,5.5-1.1,6.6c-0.6,0.8-1.8,1.1-3.3,1.1C91.8,24.3,90.8,24.1,90.1,23.3"/>
</g>
</svg>
