<?xml version="1.0" encoding="utf-8"?>
<!-- Generator: Adobe Illustrator 18.0.0, SVG Export Plug-In . SVG Version: 6.00 Build 0)  -->
<!DOCTYPE svg PUBLIC "-//W3C//DTD SVG 1.1//EN" "http://www.w3.org/Graphics/SVG/1.1/DTD/svg11.dtd">
<svg version="1.1" id="Layer_1" xmlns="http://www.w3.org/2000/svg" xmlns:xlink="http://www.w3.org/1999/xlink" x="0px" y="0px"
	 viewBox="0 152.5 960 255" enable-background="new 0 152.5 960 255" xml:space="preserve">
<g>
	<polygon fill="#FFFFFF" points="19.6,169.8 61.5,169.8 73,276.6 75,301 77.1,276.6 89.2,169.8 131.2,169.8 131.2,390.2 
		100.1,390.2 100.1,250.3 98,283.4 85.9,390.2 62.9,390.2 50.7,283.4 48.7,250.3 48.7,390.2 19.6,390.2 	"/>
	<path fill="#FFFFFF" d="M185.9,330V169.8h32.5v160.9c0,25,0,31.1,12.2,31.1c11.5,0,12.2-6.8,12.2-31.1V169.8h31.1V330
		c0,40.6-2.7,62.9-43.9,62.2C188.6,392.2,185.9,370.6,185.9,330"/>
	<path fill="#FFFFFF" d="M323.2,388.8l6.8-29.7c6.1,1.4,17.6,2.7,23.7,2.7c14.2,0,17.6-7.4,10.8-25.7l-33.1-100.7
		c-10.1-30.4-6.8-67.6,39.2-67.6c7.4,0,18.9,0.7,25.7,2l-7.4,31.8c-4.1-1.4-11.5-1.4-15.5-1.4c-15.5,0-16.9,10.8-12.2,25l31.8,94.6
		c11.5,32.5,14.2,72.3-37.2,72.3C344.1,392.2,330.6,390.9,323.2,388.8"/>
	<polygon fill="#FFFFFF" points="470.5,200.2 446.9,200.2 446.9,169.8 528,169.8 528,200.2 503,200.2 503,390.2 470.5,390.2 	"/>
	<path fill="#FFFFFF" d="M592.9,168.5h37.2l31.1,221.7h-33.1l-4.7-37.2h-25l-4.1,37.2h-31.8L592.9,168.5z M601.7,321.2h17.6
		l-4.7-42.6l-3.4-43.3l-4.1,43.3L601.7,321.2z"/>
	<polygon fill="#FFFFFF" points="711.2,169.8 745.7,169.8 763.3,248.2 769.4,279.3 769.4,169.8 799.8,169.8 799.8,390.2 
		768.7,390.2 747,295.5 741.6,267.2 741.6,390.2 711.2,390.2 	"/>
	<path fill="#FFFFFF" d="M865.4,382.1c-12.2-14.9-12.8-39.9-12.8-102.1c0-58.8,0-84.5,11.5-99.4c6.8-8.8,20.3-12.2,35.2-12.2
		c12.2,0,25,1.4,34.5,3.4l-6.8,30.4c-5.4-1.4-14.9-2.7-24.3-2.7c-18.3,0-18.3,7.4-18.3,80.5c0,72.3,0,83.8,13.5,83.8
		c12.8,0,11.5-8.1,11.5-43.3v-28.4h-16.9v-30.4h47.3v56.8c0,35.2-2,52.7-10.1,62.9c-6.1,7.4-16.9,10.1-31.8,10.1
		C880.9,391.5,871.4,389.5,865.4,382.1"/>
</g>
</svg>
