<?xml version="1.0" encoding="utf-8"?>
<!-- Generator: Adobe Illustrator 18.0.0, SVG Export Plug-In . SVG Version: 6.00 Build 0)  -->
<!DOCTYPE svg PUBLIC "-//W3C//DTD SVG 1.1//EN" "http://www.w3.org/Graphics/SVG/1.1/DTD/svg11.dtd">
<svg version="1.1" id="Layer_1" xmlns="http://www.w3.org/2000/svg" xmlns:xlink="http://www.w3.org/1999/xlink" x="0px" y="0px"
	 viewBox="0 0 142 40" enable-background="new 0 0 142 40" xml:space="preserve">
<g>
	<polygon fill="#003478" points="2.9,3.7 9.1,3.7 10.8,19.5 11.1,23.1 11.4,19.5 13.2,3.7 19.4,3.7 19.4,36.3 14.8,36.3 14.8,15.6 
		14.5,20.5 12.7,36.3 9.3,36.3 7.5,20.5 7.2,15.6 7.2,36.3 2.9,36.3 	"/>
	<path fill="#003478" d="M27.5,27.4V3.7h4.8v23.8c0,3.7,0,4.6,1.8,4.6c1.7,0,1.8-1,1.8-4.6V3.7h4.6v23.7c0,6-0.4,9.3-6.5,9.2
		C27.9,36.6,27.5,33.4,27.5,27.4"/>
	<path fill="#003478" d="M47.8,36.1l1-4.4c0.9,0.2,2.6,0.4,3.5,0.4c2.1,0,2.6-1.1,1.6-3.8L49,13.4c-1.5-4.5-1-10,5.8-10
		c1.1,0,2.8,0.1,3.8,0.3l-1.1,4.7c-0.6-0.2-1.7-0.2-2.3-0.2c-2.3,0-2.5,1.6-1.8,3.7l4.7,14c1.7,4.8,2.1,10.7-5.5,10.7
		C50.9,36.6,48.9,36.4,47.8,36.1"/>
	<polygon fill="#003478" points="69.6,8.2 66.1,8.2 66.1,3.7 78.1,3.7 78.1,8.2 74.4,8.2 74.4,36.3 69.6,36.3 	"/>
	<path fill="#003478" d="M87.7,3.5h5.5l4.6,32.8h-4.9l-0.7-5.5h-3.7l-0.6,5.5h-4.7L87.7,3.5z M89,26.1h2.6l-0.7-6.3l-0.5-6.4
		l-0.6,6.4L89,26.1z"/>
	<polygon fill="#003478" points="105.2,3.7 110.3,3.7 112.9,15.3 113.8,19.9 113.8,3.7 118.3,3.7 118.3,36.3 113.7,36.3 110.5,22.3 
		109.7,18.1 109.7,36.3 105.2,36.3 	"/>
	<path fill="#003478" d="M128,35.1c-1.8-2.2-1.9-5.9-1.9-15.1c0-8.7,0-12.5,1.7-14.7c1-1.3,3-1.8,5.2-1.8c1.8,0,3.7,0.2,5.1,0.5
		l-1,4.5c-0.8-0.2-2.2-0.4-3.6-0.4c-2.7,0-2.7,1.1-2.7,11.9c0,10.7,0,12.4,2,12.4c1.9,0,1.7-1.2,1.7-6.4v-4.2h-2.5v-4.5h7v8.4
		c0,5.2-0.3,7.8-1.5,9.3c-0.9,1.1-2.5,1.5-4.7,1.5C130.3,36.5,128.9,36.2,128,35.1"/>
</g>
</svg>
