<?xml version="1.0" encoding="utf-8"?>
<!-- Generator: Adobe Illustrator 18.0.0, SVG Export Plug-In . SVG Version: 6.00 Build 0)  -->
<!DOCTYPE svg PUBLIC "-//W3C//DTD SVG 1.1//EN" "http://www.w3.org/Graphics/SVG/1.1/DTD/svg11.dtd">
<svg version="1.1" id="Layer_1" xmlns="http://www.w3.org/2000/svg" xmlns:xlink="http://www.w3.org/1999/xlink" x="0px" y="0px"
	 viewBox="0 0 700 299" enable-background="new 0 0 700 299" xml:space="preserve">
<polyline fill="#DEF2F6" points="213.7,281.8 554.2,34.5 626.8,116.2 231.7,279.6 579.7,285.2 654.2,114.6 "/>
<polyline fill="#DEF2F6" points="637.7,177.2 223.8,284.5 615.6,259.9 665,179.4 "/>
<path fill="#DEF2F6" d="M214.3,275.6"/>
<path fill="#B8D340" d="M244,280.3c0.3,0.3,324.8-42.8,324.8-42.8l81.9,47.7l-399.9,0.3"/>
<line display="none" fill="none" stroke="#B9D440" stroke-width="6" stroke-miterlimit="10" x1="5625.9" y1="6153" x2="15084.1" y2="9869.7"/>
<line display="none" fill="none" stroke="#B9D440" stroke-width="6" stroke-miterlimit="10" x1="5718.5" y1="6327.5" x2="14501.8" y2="10002.8"/>
<polygon fill="#B9D23D" points="238.3,269.8 519.2,103.6 504.9,162.5 242,274.2 "/>
<polyline display="none" fill="#A6DBDB" points="15027.9,7937.2 5708.2,5761.2 15081.2,7461.9 "/>
<polygon fill="#E5E758" points="257.9,282.8 610,235.8 670.2,272.6 "/>
<polygon fill="#DCF1F8" points="226.7,273.1 51.9,165.9 12,127.7 "/>
<polyline display="none" fill="#012842" points="15027.9,7937.2 14965.9,8488.6 5728.7,5765.6 15027.9,7937.2 "/>
<polyline fill="#059A92" points="541.9,54.2 228.8,261.9 517.3,30.9 "/>
<polygon fill="#009C97" points="513.4,127.7 581.8,121.2 242,274.2 "/>
<polyline fill="#DCF1F8" points="109.4,55.9 140.4,67.2 221.3,260.5 109.4,55.9 "/>
<polyline fill="#DCF1F8" points="244.3,85.3 289.5,128 231.7,257.2 244.3,85.3 "/>
<polyline fill="#DCF1F8" points="419.4,36.7 437.8,84.4 231.7,259.9 401,58.6 "/>
<polygon fill="#A0CA3A" points="553.4,42.1 615.2,45.3 231.7,275.6 238.1,264.3 "/>
<path fill="#A0CA3A" d="M599.5,111.8l93.5-5.5L242.7,274.8c-1.8,1-2.3,0-2.3,0l268.8-121C509.4,153.7,599.3,111.9,599.5,111.8z"/>
<polygon display="none" fill="#63B146" points="8163,2393 9268.1,2094.7 4507,5417 "/>
<polygon fill="#009C97" points="394.4,94.1 451,81.4 228.8,265.4 "/>
<polyline fill="#00B2AC" points="419.4,36.7 231.7,259.9 338.5,71.6 "/>
<polyline fill="#012842" points="323.7,98.8 232.8,259.6 301.5,75.2 "/>
<polyline fill="#DEE34D" points="301.5,75.2 232.8,259.6 276.1,97.8 "/>
<polygon display="none" fill="#EFEC78" points="5811,6376.5 14742.2,10632.7 11384.2,10341.4 "/>
<polygon display="none" fill="#B9D23D" points="5625.9,6325.5 10079.1,10896 8160,9825.7 "/>
<polygon fill="#ECE955" points="213.7,261.4 12,85 113.8,113.8 "/>
<path fill="#B9D23D" d="M563,287.4"/>
<polyline display="none" fill="#EFEC78" points="-2.8,9869.7 5251.4,6689 5090,5828.8 0,7613.3 "/>
<polygon display="none" fill="#E4F4F9" points="5625.9,6286.1 11332.8,11822.6 9803.9,9405.5 6968.2,7130 "/>
<polygon fill="#00B2AC" points="569.2,152.7 546.2,192.1 242.7,274.8 "/>
<linearGradient id="SVGID_1_" gradientUnits="userSpaceOnUse" x1="12351.373" y1="4982.5435" x2="15050.8545" y2="4982.5435">
	<stop  offset="5.321269e-03" style="stop-color:#FFFFFF;stop-opacity:0"/>
	<stop  offset="1" style="stop-color:#FFFFFF"/>
</linearGradient>
<polyline display="none" fill="url(#SVGID_1_)" points="12351.4,-34.9 12351.4,10000 15050.9,10000 15050.9,-34.9 "/>
<line fill="none" stroke="#00B2AC" stroke-width="5" stroke-miterlimit="10" x1="12" y1="103.6" x2="228.8" y2="273.1"/>
<polygon fill="#059A92" points="683.2,131.5 683.2,208 245.6,276.3 "/>
<polygon fill="#009C97" points="211.1,97.2 182.7,75.9 231.4,264 "/>
</svg>
