<?xml version="1.0" encoding="utf-8"?>
<!-- Generator: Adobe Illustrator 18.0.0, SVG Export Plug-In . SVG Version: 6.00 Build 0)  -->
<!DOCTYPE svg PUBLIC "-//W3C//DTD SVG 1.1//EN" "http://www.w3.org/Graphics/SVG/1.1/DTD/svg11.dtd">
<svg version="1.1" id="Layer_1" xmlns="http://www.w3.org/2000/svg" xmlns:xlink="http://www.w3.org/1999/xlink" x="0px" y="0px"
	 viewBox="0 0 100 26" enable-background="new 0 0 100 26" xml:space="preserve">
<g>
	<path fill="#FFFFFF" d="M2.5,2.3H9v3H5.6v6h3.3v3H5.6v6.5H9v3H2.5C2.5,23.7,2.5,2.3,2.5,2.3z"/>
	<path fill="#FFFFFF" d="M14.9,22.9c-1.3-1.4-1.1-4-1.1-9.8c0-5.7,0-8.2,1.1-9.7c0.7-0.9,1.9-1.3,3.5-1.3c1.1,0,2.1,0.1,2.4,0.3
		l-0.6,3c-0.4-0.1-1.3-0.1-1.7-0.1C17,5.3,17,6,17,13.1c0,7.4,0,7.8,1.5,7.8c0.4,0,1.4-0.1,1.5-0.3l0.7,2.7
		c-0.6,0.1-1.5,0.4-2.5,0.4C16.7,24,15.6,23.7,14.9,22.9z"/>
	<path fill="#FFFFFF" d="M26,22.9c-1.1-1.4-1.1-4-1.1-9.8c0-5.7,0-8.2,1.1-9.7c0.7-0.9,1.7-1.3,3.3-1.3c1.7,0,2.6,0.3,3.2,1.1
		c1.1,1.4,1.1,4,1.1,9.8c0,6.2,0,8.7-1.1,9.9c-0.7,0.7-1.7,1-3.3,1C27.7,24,26.7,23.7,26,22.9z M30.5,13.1c0-7.4,0-7.8-1.3-7.8
		s-1.1,0.4-1.1,7.8s0,7.9,1.3,7.9S30.5,20.5,30.5,13.1z"/>
	<path fill="#FFFFFF" d="M38.1,23.7l0.7-3c0.6,0.1,1.7,0.3,2.2,0.3c1.4,0,1.7-0.7,1.1-2.6l-3.2-9.8c-1-3-0.7-6.7,3.8-6.7
		c0.7,0,1.8,0,2.5,0.1l-0.7,3.1c-0.4-0.1-1.1-0.1-1.5-0.1c-1.5,0-1.5,1-1.1,2.4l2.9,9.4c1.1,3.1,1.4,7.1-3.5,7.1
		C40.2,24,38.9,23.9,38.1,23.7z"/>
	<path fill="#FFFFFF" d="M50.3,2.3h4.2c3.6,0,3.9,2.4,3.9,6.8c0,4.5-0.3,7.2-3.8,7.2h-1.3v7.4h-3.1C50.3,23.7,50.3,2.3,50.3,2.3z
		 M54.4,13.4c1.1,0,1.1-1,1.1-4c0-3.1,0-4.1-1.1-4.1h-0.8v8.1H54.4z"/>
	<path fill="#FFFFFF" d="M64.5,22.9c-1.1-1.4-1.1-4-1.1-9.8c0-5.7,0-8.2,1.1-9.7c0.7-0.9,1.7-1.3,3.3-1.3c1.5,0,2.6,0.3,3.2,1.1
		c1.1,1.4,1.1,4,1.1,9.8c0,6.2,0,8.7-1.1,9.9c-0.6,0.7-1.7,1-3.2,1C66.2,24,65.1,23.7,64.5,22.9z M68.8,13.1c0-7.4,0-7.8-1.3-7.8
		c-1.3,0-1.3,0.4-1.3,7.8s0,7.9,1.3,7.9C68.8,21,68.8,20.5,68.8,13.1z"/>
	<path fill="#FFFFFF" d="M77.1,2.3h4.2C84.6,2.3,85,4.6,85,9c0,3.5-0.1,5.4-1.7,6.4l1.5,8.5h-2.9l-1.4-7.7H80v7.7h-2.9V2.3z
		 M80.9,13.1c1.1,0,1.1-1,1.1-4s0-4-1.1-4h-0.8v7.9C80.1,13.1,80.9,13.1,80.9,13.1z"/>
	<path fill="#FFFFFF" d="M91.9,5.3h-2.2v-3h7.8v3h-2.4v18.5h-3.2V5.3z"/>
</g>
</svg>
