<?xml version="1.0" encoding="utf-8"?>
<!-- Generator: Adobe Illustrator 18.0.0, SVG Export Plug-In . SVG Version: 6.00 Build 0)  -->
<!DOCTYPE svg PUBLIC "-//W3C//DTD SVG 1.1//EN" "http://www.w3.org/Graphics/SVG/1.1/DTD/svg11.dtd">
<svg version="1.1" id="Layer_1" xmlns="http://www.w3.org/2000/svg" xmlns:xlink="http://www.w3.org/1999/xlink" x="0px" y="0px"
	 viewBox="0 0 100 50" enable-background="new 0 0 100 50" xml:space="preserve">
<g>
	<path fill="#FFFFFF" d="M50,2.4c-22.2,0-39.9,6.6-39.9,15c0,8.3,17.9,15,39.9,15s39.9-6.7,39.9-15S72,2.4,50,2.4"/>
	<g id="ford_oval">
		<path fill="#1D4485" d="M65.6,18.6c-0.7-0.3-1.7,0.3-2.7,1.5c-0.8,1-1.2,1.9-1.2,2.9c0,0.3,0.1,0.8,0.4,0.9
			c0.7,0.4,1.5-0.2,2.1-0.7c0.4-0.3,0.7-0.7,1-1.1c0.3-0.5,0.5-0.8,0.8-1.3c0-0.1,0-0.1,0-0.1c-0.1,0-0.2-0.1-0.2-0.2
			c0,0,0-0.1,0-0.1C66.1,19.8,66.3,19,65.6,18.6"/>
		<path fill="#1D4485" d="M73.5,13.1c-0.3,0.5-6.1,9.4-6.5,10.4c-0.1,0.3-0.1,0.5,0,0.7c0.3,0.4,1,0.2,1.4-0.1
			c1.3-0.9,2.1-1.9,3.1-2.9c0.1-0.1,0.1-0.1,0.2,0c0.1,0.1,0.4,0.3,0.5,0.5c0.1,0.1,0,0.1,0,0.2c-0.9,1.2-2,2.2-3,3
			c-1.6,1.2-3.1,1.5-3.9,0.7c-0.3-0.3-0.4-0.7-0.5-1.1c0-0.2-0.1-0.2-0.2-0.1c-0.9,0.9-2.5,1.9-4,1.2c-1.2-0.6-1.5-2.1-1.3-3.3
			c0,0,0-0.2-0.2-0.1c-0.2,0.2-0.6,0.4-1,0.5C57.7,23,57.5,23,57,23c-0.6,0-1.1-0.2-1.5-0.8c-0.2-0.3-0.3-0.8-0.3-1.1
			c0,0-0.1-0.1-0.1,0c-1,1.5-1.9,3-2.9,4.5c-0.1,0.1-0.1,0.1-0.2,0.1c-0.6,0-1.3,0-1.9,0c-0.1,0-0.2-0.1-0.1-0.2
			c0.3-0.7,2.3-3.4,3.5-5.8c0.4-0.6,0.3-1,0.1-1.1c-0.3-0.2-0.8,0.1-1.3,0.4c-1.2,0.9-2.3,2.4-2.9,3.1c-0.3,0.4-0.6,1-1.4,1.9
			c-1.3,1.4-3,2.2-4.7,1.7c-0.9-0.3-1.6-1-1.8-1.9c-0.1-0.2-0.1-0.2-0.2-0.1c-0.3,0.3-0.8,0.8-1.3,1.1c-0.1,0-0.2,0.1-0.3,0.1
			c-0.1-0.1-0.4-0.5-0.5-0.7c-0.1-0.1,0-0.2,0.1-0.3c0.7-0.6,1-0.9,1.3-1.2c0.2-0.3,0.4-0.6,0.6-1.1c0.4-1,1.3-2.9,3.1-3.9
			c0.7-0.4,1.4-0.6,2.2-0.7c0.3,0,0.6,0,0.7,0.3c0,0.1,0.1,0.4,0.2,0.5c0,0.1,0,0.2-0.1,0.2c-1.1,0.4-2.1,1-2.9,2
			c-0.8,1.1-1.1,2.5-0.5,3.3c0.4,0.6,1.1,0.7,1.7,0.5c1-0.3,1.8-1.2,2.2-2.2c0.5-1.1,0.5-2.4,0.2-3.5c-0.1-0.2,0-0.4,0.1-0.4
			c0.2-0.2,0.6-0.4,0.7-0.4c0.2-0.1,0.5,0,0.6,0.1c0.4,0.5,0.6,1.2,0.6,2c0,0.2,0.1,0.2,0.2,0.1c0.6-0.7,1.2-1.4,1.9-1.9
			c0.6-0.5,1.4-0.9,2.1-0.9c0.9,0,1.4,0.7,1.4,1.8c0,0.1,0.1,0.1,0.2,0c0.3-0.4,0.5-0.6,0.8-0.9c0.7-0.5,1.3-0.8,2-0.8
			c0.9,0.1,1.6,0.9,1.4,1.8c-0.1,0.6-0.4,1.1-0.9,1.4c-0.4,0.2-1,0.2-1.3-0.1c-0.3-0.3-0.4-0.7-0.3-1.1c0-0.1-0.1-0.2-0.2-0.1
			c-0.8,0.9-0.9,2-0.4,2.5c0.6,0.6,1.5,0.2,2.2-0.2c1.2-0.8,2.2-1.9,3.2-2.7c0.7-0.6,1.6-1,2.5-1.2c0.5-0.1,1,0,1.5,0.2
			c0.7,0.3,1.1,0.8,1.1,1.3c0,0.1,0.1,0.2,0.2,0c0.5-0.8,3.3-5.1,3.6-5.5c0.1-0.1,0.1-0.2,0.3-0.2c0.6,0,1.4,0,2,0
			C73.5,13,73.5,13,73.5,13.1 M31,25.7c-2.2,0-4.1-1.3-4.3-3.7c-0.1-1.3,0.2-2.4,1-3.4c0.6-0.8,1.8-1.6,2.7-1.7
			c0.3-0.1,0.7,0,0.9,0.2c0.3,0.3,0.2,0.6-0.1,0.8c-0.7,0.4-1.6,1-2,1.8c-0.3,0.7-0.4,1.5,0.1,2.3c0.9,1.3,3.3,1.4,5.6-0.8
			c0.6-0.5,1.1-1,1.6-1.6c1-1.1,1.3-1.6,2.7-3.4c0,0,0-0.1,0-0.1c0,0,0,0-0.1,0c-0.9,0-1.7,0.3-2.4,0.9c-0.2,0.2-0.5,0.1-0.7-0.1
			s-0.1-0.5,0.2-0.7c1.2-0.8,2.5-1,3.9-1.2c0,0,0.1,0,0.2-0.1c0.6-0.7,1-1.4,1.6-2.1c0.6-0.7,1.4-1.4,1.9-1.9
			c0.8-0.7,1.3-0.9,1.9-1.2c0.1-0.1,0-0.2-0.1-0.2c-3-0.6-6.1-1.3-9.1-0.2c-2.1,0.8-2.9,2.4-2.5,3.5c0.3,0.8,1.3,0.9,2.3,0.4
			c0.8-0.4,1.5-1,2-1.8c0.3-0.4,0.9-0.1,0.6,0.6c-0.9,2-2.5,3.7-4.5,3.7c-1.7,0.1-2.8-1.2-2.8-2.8c0-3.1,3.4-5.1,7-5.4
			c4.3-0.4,8.4,0.8,12.7,1.3c3.3,0.4,6.4,0.4,9.8-0.4c0.4-0.1,0.7,0.2,0.6,0.6c0,0.6-0.5,1.1-1.6,1.7c-1.2,0.7-2.5,0.9-3.9,0.9
			c-3.3,0-6.3-1.2-9.5-1.9c0,0.1,0,0.3-0.1,0.4c-1.8,1.3-3.3,2.6-4.4,4.4c0,0.1,0,0.1,0.1,0.1c0.9-0.1,1.8-0.1,2.6-0.1
			c0.1,0,0.2-0.1,0.1-0.2c-0.1-0.6,0.1-1.4,0.7-1.9c0.6-0.5,1.3-0.6,1.8-0.2c0.5,0.4,0.5,1.2,0.2,1.8c-0.3,0.6-0.8,0.9-1.3,1
			c0,0-0.1,0-0.1,0.1c0,0.1,0.7,0.5,0.7,0.6c0.1,0.1,0,0.2-0.1,0.3c-0.1,0.1-0.2,0.1-0.3,0.1c-0.1,0-0.2,0-0.3-0.1
			c-0.3-0.2-0.7-0.4-0.9-0.7c-0.1-0.1-0.1-0.1-0.3-0.1c-0.9,0.1-2.4,0.2-3.4,0.3c-0.2,0-0.3,0.1-0.3,0.2c-1.6,2.6-3.2,5.4-5.1,7.2
			C34.4,25.1,32.8,25.6,31,25.7 M50,4.9c-20.4,0-36.9,5.6-36.9,12.5S29.6,29.9,50,29.9s36.9-5.6,36.9-12.5
			C86.9,10.5,70.4,4.9,50,4.9"/>
		<path fill="#1D4485" d="M50,31.1c-21.1,0-38.3-6.1-38.3-13.7S28.9,3.7,50,3.7s38.3,6.1,38.3,13.7S71.1,31.1,50,31.1 M50,2.4
			c-22.2,0-39.9,6.6-39.9,15c0,8.3,17.9,15,39.9,15s39.9-6.7,39.9-15S72,2.4,50,2.4"/>
	</g>
	<g id="Go_Further">
		<g>
			<path fill="#1D4485" d="M24.4,43.8c0-2.7,1.4-3.8,3.9-3.8c1.5,0,2.4,0.4,3,1.1l-1.1,1.1c-0.4-0.4-0.9-0.7-1.9-0.7
				c-1.6,0-2.2,0.8-2.2,2.3c0,1.6,0.4,2.4,2.2,2.4c1.4,0,1.9-0.5,1.9-1.5v-0.2H28v-1.4h3.7v1.2c0,2.1-0.8,3.2-3.5,3.2
				C25.2,47.6,24.4,46.2,24.4,43.8z"/>
			<path fill="#1D4485" d="M32.3,44.6c0-1.9,0.8-2.9,2.9-2.9c2.1,0,2.9,1.1,2.9,2.9s-0.8,2.9-2.9,2.9C33.1,47.6,32.3,46.5,32.3,44.6
				z M36.6,44.7c0-0.9-0.3-1.6-1.4-1.6c-1.1,0-1.4,0.6-1.4,1.6c0,1,0.3,1.6,1.4,1.6C36.3,46.2,36.6,45.6,36.6,44.7z"/>
			<path fill="#1D4485" d="M41,40.1h5.4v1.5h-3.7v1.6h3.6v1.4h-3.6v2.9H41C41,47.5,41,40.1,41,40.1z"/>
			<path fill="#1D4485" d="M47.1,44.8v-3h1.6v3.1c0,0.8,0,1.3,1.1,1.3s1.1-0.6,1.1-1.3v-3.1h1.5v3c0,1.9-0.5,2.7-2.7,2.7
				C47.7,47.5,47.1,46.8,47.1,44.8z"/>
			<path fill="#1D4485" d="M53.2,41.9l1.2-0.1l0.2,0.6c0.2-0.4,0.9-0.6,1.8-0.7v1.5c-1.3,0-1.6,0.5-1.6,1.4v2.8h-1.6L53.2,41.9
				L53.2,41.9z"/>
			<path fill="#1D4485" d="M56.8,41.8h1l0.3-1.4l1.2-0.2v1.6h1.3v1.3h-1.4v2.3c0,0.4,0.1,0.7,0.7,0.7h0.6v1.3c-0.2,0-0.6,0-0.9,0
				c-1.5,0-2-0.5-2-1.8v-2.6h-0.9C56.7,43.1,56.7,41.8,56.8,41.8z"/>
			<path fill="#1D4485" d="M61.3,39.7h1.6v2.5c0.2-0.2,0.8-0.5,1.8-0.5c1.7,0,2,0.9,2,2.3v3.4h-1.6v-3.1c0-0.7-0.1-1.2-1-1.2
				c-1.1,0-1.3,0.5-1.3,1.2v3h-1.6L61.3,39.7L61.3,39.7z"/>
			<path fill="#1D4485" d="M67.3,44.6c0-1.6,0.5-2.9,2.9-2.9c2.5,0,2.6,1.6,2.5,3.5h-3.9c0.1,0.7,0.4,1.1,1.4,1.1
				c0.9,0,1.4-0.2,1.8-0.5l0.8,1c-0.7,0.6-1.4,0.8-2.6,0.8C67.8,47.6,67.3,46.2,67.3,44.6z M68.9,44.1h2.5c0-0.6-0.2-1.1-1.1-1.1
				S68.9,43.4,68.9,44.1z"/>
			<path fill="#1D4485" d="M73.5,41.9l1.2-0.1l0.2,0.6c0.2-0.4,0.9-0.6,1.8-0.7v1.5c-1.3,0-1.6,0.5-1.6,1.4v2.8h-1.6L73.5,41.9
				L73.5,41.9z"/>
		</g>
	</g>
</g>
</svg>
