<?xml version="1.0" encoding="utf-8"?>
<!-- Generator: Adobe Illustrator 16.0.0, SVG Export Plug-In . SVG Version: 6.00 Build 0)  -->
<!DOCTYPE svg PUBLIC "-//W3C//DTD SVG 1.1//EN" "http://www.w3.org/Graphics/SVG/1.1/DTD/svg11.dtd">
<svg version="1.1" id="Layer_1" xmlns="http://www.w3.org/2000/svg" xmlns:xlink="http://www.w3.org/1999/xlink" x="0px" y="0px"
	 width="211.838px" height="65.575px" viewBox="0 0 211.838 65.575" style="enable-background:new 0 0 211.838 65.575;"
	 xml:space="preserve">
<style type="text/css">
<![CDATA[
	.st0{fill:none;stroke:#16477E;stroke-miterlimit:10;}
	.st1{fill:#15477D;}
	.st2{fill:#16477E;}
	.st3{fill:#FFFFFF;}
]]>
</style>
<g>
	<g>
		<g>
			<path class="st2" d="M7.798,57.098c0,1.657,1.343,3,3,3h27.855c1.657,0,3-1.343,3-3V33.243c0-1.657-1.343-3-3-3H10.798
				c-1.657,0-3,1.343-3,3V57.098z"/>
		</g>
		<g>
			<path class="st3" d="M9.244,55.677c0,1.657,1.343,3,3,3h24.919c1.657,0,3-1.343,3-3V34.757c0-1.657-1.343-3-3-3H12.244
				c-1.657,0-3,1.343-3,3V55.677z"/>
		</g>
	</g>
	<polyline class="st0" points="27.236,38.511 20.442,46.943 27.236,53.416 	"/>
</g>
<g>
	<g>
		<g>
			<path class="st2" d="M172.572,57.89c0,1.657,1.343,3,3,3h27.854c1.657,0,3-1.343,3-3V34.035c0-1.657-1.343-3-3-3h-27.854
				c-1.657,0-3,1.343-3,3V57.89z"/>
		</g>
		<g>
			<path class="st3" d="M174.062,56.375c0,1.657,1.343,3,3,3h24.919c1.657,0,3-1.343,3-3V35.456c0-1.657-1.343-3-3-3h-24.919
				c-1.657,0-3,1.343-3,3V56.375z"/>
		</g>
	</g>
	<polyline class="st0" points="186.987,52.622 193.783,44.189 186.987,37.717 	"/>
</g>
<g>
	<path class="st2" d="M57.13,42.496c-0.273,0.152-0.604,0.271-0.99,0.354s-0.842,0.126-1.365,0.126
		c-0.527,0-0.983-0.042-1.368-0.126s-0.714-0.202-0.987-0.354c-0.273-0.148-0.495-0.327-0.665-0.536s-0.304-0.438-0.401-0.688
		c-0.098-0.246-0.164-0.509-0.199-0.788s-0.053-0.565-0.053-0.858v-5.689h0.949v5.584c0,0.379,0.037,0.726,0.111,1.04
		s0.211,0.585,0.41,0.812c0.199,0.23,0.476,0.409,0.829,0.536s0.812,0.19,1.374,0.19c0.566,0,1.03-0.062,1.392-0.188
		s0.646-0.301,0.853-0.527c0.203-0.227,0.344-0.498,0.422-0.814s0.117-0.666,0.117-1.049v-5.584h0.908v5.689
		c0,0.293-0.019,0.58-0.056,0.861s-0.104,0.545-0.202,0.791c-0.102,0.25-0.238,0.479-0.41,0.686S57.404,42.347,57.13,42.496z"/>
	<path class="st2" d="M67.062,40.333c0,0.883-0.289,1.539-0.867,1.969s-1.473,0.645-2.684,0.645c-0.676,0-1.318-0.077-1.928-0.231
		s-1.195-0.417-1.758-0.788l0.48-0.715c0.266,0.168,0.531,0.309,0.797,0.422s0.531,0.205,0.797,0.275
		c0.262,0.07,0.524,0.121,0.788,0.152s0.53,0.047,0.8,0.047c0.457,0,0.853-0.033,1.187-0.1s0.61-0.17,0.829-0.311
		c0.215-0.141,0.374-0.321,0.478-0.542s0.155-0.483,0.155-0.788c0-0.316-0.063-0.57-0.19-0.762s-0.306-0.348-0.536-0.469
		c-0.23-0.117-0.509-0.212-0.835-0.284s-0.688-0.144-1.087-0.214c-0.32-0.055-0.622-0.112-0.905-0.173s-0.544-0.132-0.782-0.214
		s-0.452-0.18-0.642-0.293s-0.349-0.252-0.478-0.416c-0.133-0.164-0.234-0.357-0.305-0.58s-0.105-0.484-0.105-0.785
		c0-0.426,0.068-0.79,0.205-1.093s0.34-0.55,0.609-0.741s0.605-0.331,1.008-0.419s0.867-0.132,1.395-0.132
		c0.695,0,1.296,0.072,1.802,0.217s0.937,0.336,1.292,0.574l-0.504,0.768c-0.16-0.105-0.338-0.201-0.533-0.287
		s-0.402-0.16-0.621-0.223c-0.223-0.059-0.455-0.104-0.697-0.138s-0.488-0.05-0.738-0.05c-0.398,0-0.742,0.028-1.031,0.085
		s-0.525,0.146-0.709,0.267c-0.188,0.125-0.325,0.282-0.413,0.472s-0.132,0.415-0.132,0.677c0,0.281,0.057,0.512,0.17,0.691
		s0.277,0.326,0.492,0.439c0.215,0.117,0.478,0.213,0.788,0.287s0.665,0.146,1.063,0.217c0.484,0.086,0.932,0.178,1.342,0.275
		s0.764,0.234,1.061,0.41s0.528,0.41,0.694,0.703S67.062,39.857,67.062,40.333z"/>
	<path class="st2" d="M68.814,42.83v-8.895h5.883v0.902h-4.934v2.941h4.811v0.885h-4.811v3.305h4.98v0.861H68.814z"/>
	<path class="st2" d="M78.558,42.83l3.562-8.953h0.949l3.568,8.953h-0.961l-0.82-2.051h-4.559l-0.803,2.051H78.558z M80.621,39.912
		h3.902l-1.945-4.893L80.621,39.912z"/>
	<path class="st2" d="M93.682,42.83l-2.127-3.621h-2.648v3.621H87.98v-8.895h3.844c1.031,0,1.79,0.214,2.274,0.642
		s0.727,1.083,0.727,1.966c0,0.77-0.188,1.375-0.561,1.816s-0.947,0.711-1.725,0.809l2.151,3.662H93.682z M88.906,38.341h2.93
		c0.316,0,0.601-0.027,0.853-0.082s0.466-0.148,0.642-0.281s0.311-0.312,0.404-0.539s0.141-0.514,0.141-0.861
		c0-0.344-0.047-0.63-0.139-0.858s-0.225-0.409-0.4-0.542c-0.18-0.133-0.399-0.227-0.657-0.281s-0.553-0.082-0.885-0.082h-2.889
		V38.341z"/>
	<path class="st2" d="M102.295,42.83l-2.127-3.621H97.52v3.621h-0.926v-8.895h3.844c1.031,0,1.789,0.214,2.273,0.642
		s0.727,1.083,0.727,1.966c0,0.77-0.188,1.375-0.561,1.816s-0.947,0.711-1.725,0.809l2.15,3.662H102.295z M97.52,38.341h2.93
		c0.316,0,0.6-0.027,0.852-0.082s0.467-0.148,0.643-0.281s0.311-0.312,0.404-0.539s0.141-0.514,0.141-0.861
		c0-0.344-0.047-0.63-0.139-0.858s-0.225-0.409-0.4-0.542c-0.18-0.133-0.398-0.227-0.656-0.281s-0.553-0.082-0.885-0.082H97.52
		V38.341z"/>
	<path class="st2" d="M112.238,41.869c-0.383,0.375-0.854,0.653-1.41,0.835s-1.191,0.272-1.906,0.272
		c-0.711,0-1.344-0.091-1.896-0.272s-1.018-0.46-1.396-0.835c-0.383-0.375-0.674-0.852-0.873-1.43s-0.299-1.266-0.299-2.062
		c0-0.789,0.1-1.472,0.299-2.048s0.49-1.052,0.873-1.427c0.379-0.375,0.844-0.653,1.396-0.835s1.186-0.272,1.896-0.272
		c0.715,0,1.35,0.091,1.906,0.272s1.027,0.46,1.41,0.835s0.674,0.851,0.873,1.427s0.299,1.259,0.299,2.048
		c0,0.797-0.1,1.484-0.299,2.062S112.621,41.494,112.238,41.869z M106.262,41.148c0.285,0.312,0.648,0.549,1.09,0.709
		s0.965,0.24,1.57,0.24s1.131-0.08,1.576-0.24s0.814-0.396,1.107-0.709c0.289-0.312,0.504-0.699,0.645-1.16s0.211-0.994,0.211-1.6
		c0-0.598-0.07-1.127-0.211-1.588s-0.355-0.848-0.645-1.16c-0.293-0.312-0.662-0.549-1.107-0.709s-0.971-0.24-1.576-0.24
		s-1.129,0.08-1.57,0.24s-0.805,0.396-1.09,0.709c-0.289,0.312-0.504,0.699-0.645,1.16s-0.211,0.99-0.211,1.588
		c0,0.605,0.07,1.139,0.211,1.6S105.973,40.835,106.262,41.148z"/>
	<path class="st2" d="M117.014,42.888l-2.865-8.953h0.973l2.338,7.359l2.385-7.359h0.82l2.373,7.359l2.355-7.359h0.908l-2.854,8.953
		h-0.814l-2.402-7.4l-2.391,7.4H117.014z"/>
	<path class="st2" d="M136.467,42.83l-3.182-4.717l-1.775,1.945v2.771h-0.926v-8.895h0.926v4.91l4.5-4.91h1.09l-3.193,3.492
		l3.627,5.402H136.467z"/>
	<path class="st2" d="M139.033,42.83v-8.895h5.883v0.902h-4.934v2.941h4.811v0.885h-4.811v3.305h4.98v0.861H139.033z"/>
	<path class="st2" d="M149.393,42.83v-3.457l-3.574-5.438h1.031l3.023,4.588l3.047-4.588h0.973l-3.562,5.426v3.469H149.393z"/>
	<path class="st2" d="M161.398,40.333c0,0.883-0.289,1.539-0.867,1.969s-1.473,0.645-2.684,0.645c-0.676,0-1.318-0.077-1.928-0.231
		s-1.195-0.417-1.758-0.788l0.48-0.715c0.266,0.168,0.531,0.309,0.797,0.422s0.531,0.205,0.797,0.275
		c0.262,0.07,0.523,0.121,0.787,0.152s0.531,0.047,0.801,0.047c0.457,0,0.852-0.033,1.186-0.1s0.611-0.17,0.83-0.311
		c0.215-0.141,0.373-0.321,0.477-0.542s0.156-0.483,0.156-0.788c0-0.316-0.064-0.57-0.191-0.762s-0.305-0.348-0.535-0.469
		c-0.23-0.117-0.51-0.212-0.836-0.284s-0.688-0.144-1.086-0.214c-0.32-0.055-0.623-0.112-0.906-0.173s-0.543-0.132-0.781-0.214
		s-0.453-0.18-0.643-0.293s-0.348-0.252-0.477-0.416c-0.133-0.164-0.234-0.357-0.305-0.58s-0.105-0.484-0.105-0.785
		c0-0.426,0.068-0.79,0.205-1.093s0.34-0.55,0.609-0.741s0.605-0.331,1.008-0.419s0.867-0.132,1.395-0.132
		c0.695,0,1.295,0.072,1.801,0.217s0.938,0.336,1.293,0.574l-0.504,0.768c-0.16-0.105-0.338-0.201-0.533-0.287
		s-0.402-0.16-0.621-0.223c-0.223-0.059-0.455-0.104-0.697-0.138s-0.488-0.05-0.738-0.05c-0.398,0-0.742,0.028-1.031,0.085
		s-0.525,0.146-0.709,0.267c-0.188,0.125-0.326,0.282-0.414,0.472s-0.131,0.415-0.131,0.677c0,0.281,0.057,0.512,0.17,0.691
		s0.277,0.326,0.492,0.439c0.215,0.117,0.477,0.213,0.787,0.287s0.666,0.146,1.064,0.217c0.484,0.086,0.932,0.178,1.342,0.275
		s0.764,0.234,1.061,0.41s0.527,0.41,0.693,0.703S161.398,39.857,161.398,40.333z"/>
	<path class="st2" d="M53.779,57.229v-7.992h-3.34v-0.902h7.623v0.902h-3.34v7.992H53.779z"/>
	<path class="st2" d="M66.06,56.269c-0.383,0.375-0.853,0.653-1.409,0.835s-1.192,0.272-1.907,0.272
		c-0.711,0-1.343-0.091-1.896-0.272s-1.019-0.46-1.397-0.835c-0.383-0.375-0.674-0.852-0.873-1.43s-0.299-1.266-0.299-2.062
		c0-0.789,0.1-1.472,0.299-2.048s0.49-1.052,0.873-1.427c0.379-0.375,0.845-0.653,1.397-0.835s1.185-0.272,1.896-0.272
		c0.715,0,1.351,0.091,1.907,0.272s1.026,0.46,1.409,0.835s0.674,0.851,0.873,1.427s0.299,1.259,0.299,2.048
		c0,0.797-0.1,1.484-0.299,2.062S66.443,55.894,66.06,56.269z M60.083,55.548c0.285,0.312,0.648,0.549,1.09,0.709
		s0.965,0.24,1.57,0.24s1.131-0.08,1.576-0.24s0.814-0.396,1.107-0.709c0.289-0.312,0.504-0.699,0.645-1.16s0.211-0.994,0.211-1.6
		c0-0.598-0.07-1.127-0.211-1.588s-0.355-0.848-0.645-1.16c-0.293-0.312-0.662-0.549-1.107-0.709s-0.971-0.24-1.576-0.24
		s-1.129,0.08-1.57,0.24s-0.805,0.396-1.09,0.709c-0.289,0.312-0.504,0.699-0.645,1.16s-0.211,0.99-0.211,1.588
		c0,0.605,0.07,1.139,0.211,1.6S59.794,55.235,60.083,55.548z"/>
	<path class="st2" d="M77.515,57.007c-0.258,0.109-0.552,0.196-0.882,0.261s-0.712,0.097-1.146,0.097
		c-0.746,0-1.395-0.098-1.945-0.293s-1.006-0.486-1.365-0.873c-0.363-0.383-0.633-0.86-0.809-1.433s-0.264-1.235-0.264-1.989
		c0-0.777,0.099-1.453,0.296-2.027s0.485-1.051,0.864-1.43c0.375-0.379,0.838-0.661,1.389-0.847s1.178-0.278,1.881-0.278
		c0.633,0,1.211,0.092,1.734,0.275s0.98,0.463,1.371,0.838l-0.668,0.674c-0.32-0.289-0.687-0.51-1.099-0.662
		s-0.862-0.229-1.351-0.229c-1.145,0-2.009,0.309-2.593,0.926s-0.876,1.541-0.876,2.771c0,0.605,0.069,1.139,0.208,1.6
		s0.353,0.846,0.642,1.154c0.285,0.309,0.646,0.541,1.084,0.697s0.953,0.234,1.547,0.234c0.332,0,0.625-0.024,0.879-0.073
		s0.48-0.116,0.68-0.202c0.195-0.082,0.369-0.178,0.521-0.287s0.295-0.227,0.428-0.352l0.656,0.639
		c-0.152,0.148-0.324,0.293-0.516,0.434S77.769,56.897,77.515,57.007z"/>
	<path class="st2" d="M87.277,56.269c-0.383,0.375-0.853,0.653-1.409,0.835s-1.192,0.272-1.907,0.272
		c-0.711,0-1.343-0.091-1.896-0.272s-1.019-0.46-1.397-0.835c-0.383-0.375-0.674-0.852-0.873-1.43s-0.299-1.266-0.299-2.062
		c0-0.789,0.1-1.472,0.299-2.048s0.49-1.052,0.873-1.427c0.379-0.375,0.845-0.653,1.397-0.835s1.185-0.272,1.896-0.272
		c0.715,0,1.351,0.091,1.907,0.272s1.026,0.46,1.409,0.835s0.674,0.851,0.873,1.427s0.299,1.259,0.299,2.048
		c0,0.797-0.1,1.484-0.299,2.062S87.66,55.894,87.277,56.269z M81.3,55.548c0.285,0.312,0.648,0.549,1.09,0.709
		s0.965,0.24,1.57,0.24s1.131-0.08,1.576-0.24s0.814-0.396,1.107-0.709c0.289-0.312,0.504-0.699,0.645-1.16s0.211-0.994,0.211-1.6
		c0-0.598-0.07-1.127-0.211-1.588s-0.355-0.848-0.645-1.16c-0.293-0.312-0.662-0.549-1.107-0.709s-0.971-0.24-1.576-0.24
		s-1.129,0.08-1.57,0.24s-0.805,0.396-1.09,0.709c-0.289,0.312-0.504,0.699-0.645,1.16s-0.211,0.99-0.211,1.588
		c0,0.605,0.07,1.139,0.211,1.6S81.011,55.235,81.3,55.548z"/>
	<path class="st2" d="M90.019,57.229v-8.895h1.031l5.321,7.336v-7.336h0.908v8.895h-0.861l-5.485-7.547v7.547H90.019z"/>
	<path class="st2" d="M101.984,57.229v-7.992h-3.34v-0.902h7.623v0.902h-3.34v7.992H101.984z"/>
	<path class="st2" d="M113.322,57.229l-2.127-3.621h-2.648v3.621h-0.926v-8.895h3.844c1.031,0,1.789,0.214,2.273,0.642
		s0.727,1.083,0.727,1.966c0,0.77-0.188,1.375-0.561,1.816s-0.947,0.711-1.725,0.809l2.15,3.662H113.322z M108.547,52.741h2.93
		c0.316,0,0.6-0.027,0.852-0.082s0.467-0.148,0.643-0.281s0.311-0.312,0.404-0.539s0.141-0.514,0.141-0.861
		c0-0.344-0.047-0.63-0.139-0.858s-0.225-0.409-0.4-0.542c-0.18-0.133-0.398-0.227-0.656-0.281s-0.553-0.082-0.885-0.082h-2.889
		V52.741z"/>
	<path class="st2" d="M123.266,56.269c-0.383,0.375-0.854,0.653-1.41,0.835s-1.191,0.272-1.906,0.272
		c-0.711,0-1.344-0.091-1.896-0.272s-1.018-0.46-1.396-0.835c-0.383-0.375-0.674-0.852-0.873-1.43s-0.299-1.266-0.299-2.062
		c0-0.789,0.1-1.472,0.299-2.048s0.49-1.052,0.873-1.427c0.379-0.375,0.844-0.653,1.396-0.835s1.186-0.272,1.896-0.272
		c0.715,0,1.35,0.091,1.906,0.272s1.027,0.46,1.41,0.835s0.674,0.851,0.873,1.427s0.299,1.259,0.299,2.048
		c0,0.797-0.1,1.484-0.299,2.062S123.648,55.894,123.266,56.269z M117.289,55.548c0.285,0.312,0.648,0.549,1.09,0.709
		s0.965,0.24,1.57,0.24s1.131-0.08,1.576-0.24s0.814-0.396,1.107-0.709c0.289-0.312,0.504-0.699,0.645-1.16s0.211-0.994,0.211-1.6
		c0-0.598-0.07-1.127-0.211-1.588s-0.355-0.848-0.645-1.16c-0.293-0.312-0.662-0.549-1.107-0.709s-0.971-0.24-1.576-0.24
		s-1.129,0.08-1.57,0.24s-0.805,0.396-1.09,0.709c-0.289,0.312-0.504,0.699-0.645,1.16s-0.211,0.99-0.211,1.588
		c0,0.605,0.07,1.139,0.211,1.6S117,55.235,117.289,55.548z"/>
	<path class="st2" d="M126.008,57.229v-8.895h0.949v8.033h4.729v0.861H126.008z"/>
	<path class="st2" d="M141.764,57.007c-0.258,0.109-0.553,0.196-0.883,0.261s-0.711,0.097-1.145,0.097
		c-0.746,0-1.395-0.098-1.945-0.293s-1.006-0.486-1.365-0.873c-0.363-0.383-0.633-0.86-0.809-1.433s-0.264-1.235-0.264-1.989
		c0-0.777,0.098-1.453,0.295-2.027s0.486-1.051,0.865-1.43c0.375-0.379,0.838-0.661,1.389-0.847s1.178-0.278,1.881-0.278
		c0.633,0,1.211,0.092,1.734,0.275s0.98,0.463,1.371,0.838l-0.668,0.674c-0.32-0.289-0.688-0.51-1.1-0.662s-0.861-0.229-1.35-0.229
		c-1.145,0-2.01,0.309-2.594,0.926s-0.875,1.541-0.875,2.771c0,0.605,0.068,1.139,0.207,1.6s0.354,0.846,0.643,1.154
		c0.285,0.309,0.646,0.541,1.084,0.697s0.953,0.234,1.547,0.234c0.332,0,0.625-0.024,0.879-0.073s0.48-0.116,0.68-0.202
		c0.195-0.082,0.369-0.178,0.521-0.287s0.295-0.227,0.428-0.352l0.656,0.639c-0.152,0.148-0.324,0.293-0.516,0.434
		S142.018,56.897,141.764,57.007z"/>
	<path class="st2" d="M143.504,57.229l3.562-8.953h0.949l3.568,8.953h-0.961l-0.82-2.051h-4.559l-0.803,2.051H143.504z
		 M145.566,54.312h3.902l-1.945-4.893L145.566,54.312z"/>
	<path class="st2" d="M158.627,57.229l-2.127-3.621h-2.648v3.621h-0.926v-8.895h3.844c1.031,0,1.789,0.214,2.273,0.642
		s0.727,1.083,0.727,1.966c0,0.77-0.188,1.375-0.561,1.816s-0.947,0.711-1.725,0.809l2.15,3.662H158.627z M153.852,52.741h2.93
		c0.316,0,0.6-0.027,0.852-0.082s0.467-0.148,0.643-0.281s0.311-0.312,0.404-0.539s0.141-0.514,0.141-0.861
		c0-0.344-0.047-0.63-0.139-0.858s-0.225-0.409-0.4-0.542c-0.18-0.133-0.398-0.227-0.656-0.281s-0.553-0.082-0.885-0.082h-2.889
		V52.741z"/>
</g>
<g>
	<path class="st1" d="M20.295,20l3.859-9.699h1.028L29.049,20h-1.041l-0.889-2.222h-4.938L21.311,20H20.295z M22.529,16.839h4.228
		l-2.107-5.3L22.529,16.839z"/>
	<path class="st1" d="M32.647,20.063l-3.834-9.699h1.054l3.313,8.411l3.295-8.411h1.047l-3.847,9.699H32.647z"/>
	<path class="st1" d="M46.479,18.959c-0.415,0.406-0.924,0.708-1.526,0.904c-0.604,0.197-1.292,0.295-2.066,0.295
		c-0.771,0-1.455-0.098-2.054-0.295c-0.599-0.196-1.104-0.498-1.514-0.904c-0.415-0.406-0.73-0.922-0.946-1.549
		s-0.323-1.371-0.323-2.234c0-0.855,0.107-1.594,0.323-2.219c0.216-0.624,0.531-1.139,0.946-1.545
		c0.41-0.406,0.915-0.708,1.514-0.905c0.599-0.196,1.283-0.295,2.054-0.295c0.774,0,1.463,0.099,2.066,0.295
		c0.603,0.197,1.111,0.499,1.526,0.905c0.414,0.406,0.729,0.921,0.945,1.545c0.216,0.625,0.324,1.364,0.324,2.219
		c0,0.863-0.108,1.608-0.324,2.234S46.894,18.553,46.479,18.959z M40.005,18.178c0.309,0.338,0.702,0.595,1.181,0.768
		c0.478,0.173,1.045,0.26,1.701,0.26c0.655,0,1.225-0.087,1.707-0.26s0.883-0.43,1.2-0.768c0.312-0.338,0.546-0.757,0.698-1.257
		s0.229-1.077,0.229-1.733c0-0.647-0.076-1.221-0.229-1.72s-0.386-0.918-0.698-1.257c-0.317-0.338-0.718-0.595-1.2-0.768
		s-1.052-0.26-1.707-0.26c-0.656,0-1.224,0.087-1.701,0.26c-0.479,0.173-0.872,0.43-1.181,0.768
		c-0.313,0.338-0.546,0.757-0.698,1.257s-0.229,1.073-0.229,1.72c0,0.656,0.076,1.233,0.229,1.733S39.691,17.84,40.005,18.178z"/>
	<path class="st1" d="M49.558,20v-9.636h0.997V20H49.558z"/>
	<path class="st1" d="M52.922,20v-9.636h3.148c0.901,0,1.666,0.076,2.295,0.229c0.628,0.152,1.14,0.413,1.533,0.781
		c0.389,0.368,0.672,0.861,0.847,1.479c0.176,0.618,0.264,1.392,0.264,2.323c0,0.91-0.096,1.674-0.289,2.292
		c-0.192,0.618-0.493,1.113-0.904,1.485c-0.41,0.376-0.939,0.646-1.587,0.806S56.805,20,55.899,20H52.922z M53.95,19.067h1.987
		c0.762,0,1.4-0.069,1.917-0.207c0.516-0.137,0.933-0.36,1.25-0.669c0.313-0.305,0.538-0.705,0.673-1.2
		c0.136-0.495,0.203-1.1,0.203-1.815c0-0.487-0.025-0.919-0.076-1.298c-0.051-0.379-0.135-0.71-0.254-0.994
		c-0.118-0.284-0.276-0.525-0.473-0.724c-0.197-0.199-0.439-0.36-0.727-0.482c-0.288-0.123-0.628-0.211-1.02-0.267
		c-0.391-0.055-0.841-0.083-1.349-0.083H53.95V19.067z"/>
	<path class="st1" d="M68.588,20v-8.658h-3.617v-0.978h8.258v0.978H69.61V20H68.588z"/>
	<path class="st1" d="M74.694,20v-9.636h1.028v4.113h5.783v-4.113h1.016V20h-1.016v-4.526h-5.783V20H74.694z"/>
	<path class="st1" d="M84.794,20v-9.636h6.373v0.978h-5.345v3.187h5.211v0.958h-5.211v3.58h5.396V20H84.794z"/>
	<path class="st1" d="M96.156,20v-9.636h6.202v0.978h-5.174v3.263h5.059v0.965h-5.059V20H96.156z"/>
	<path class="st1" d="M102.244,20l3.859-9.699h1.027L110.997,20h-1.041l-0.889-2.222h-4.938L103.26,20H102.244z M104.479,16.839
		h4.227l-2.107-5.3L104.479,16.839z"/>
	<path class="st1" d="M112.45,20v-9.636h1.028v8.703h5.123V20H112.45z"/>
	<path class="st1" d="M120.081,20v-9.636h1.028v8.703h5.123V20H120.081z"/>
	<path class="st1" d="M127.818,20v-9.636h0.996V20H127.818z"/>
	<path class="st1" d="M131.183,20v-9.636h1.117l5.764,7.947v-7.947h0.983V20h-0.933l-5.941-8.176V20H131.183z"/>
	<path class="st1" d="M148.15,19.606c-0.313,0.173-0.688,0.307-1.127,0.4c-0.438,0.093-0.951,0.14-1.539,0.14
		c-0.854,0-1.583-0.105-2.184-0.314c-0.601-0.21-1.09-0.522-1.467-0.937c-0.376-0.415-0.651-0.933-0.824-1.555
		c-0.174-0.622-0.261-1.344-0.261-2.165c0-0.868,0.104-1.614,0.314-2.241c0.209-0.626,0.517-1.141,0.923-1.542
		s0.907-0.699,1.502-0.892c0.595-0.193,1.276-0.289,2.047-0.289c0.461,0,0.874,0.034,1.238,0.102
		c0.363,0.068,0.689,0.157,0.977,0.267c0.284,0.114,0.531,0.243,0.743,0.387s0.396,0.29,0.552,0.438l-0.729,0.743
		c-0.152-0.131-0.318-0.256-0.498-0.375s-0.382-0.222-0.606-0.311c-0.225-0.084-0.474-0.152-0.749-0.203s-0.584-0.076-0.927-0.076
		c-1.253,0-2.194,0.327-2.824,0.981c-0.631,0.653-0.946,1.662-0.946,3.024c0,0.681,0.068,1.276,0.206,1.784s0.356,0.929,0.657,1.263
		c0.296,0.334,0.683,0.584,1.158,0.749c0.477,0.165,1.055,0.248,1.736,0.248c0.647,0,1.176-0.069,1.584-0.207
		c0.408-0.137,0.729-0.341,0.962-0.612c0.232-0.271,0.392-0.608,0.479-1.013c0.087-0.404,0.131-0.873,0.131-1.406v-0.311h-3.25
		v-0.946h4.266v1.092c0,0.436-0.022,0.844-0.067,1.225c-0.044,0.381-0.124,0.732-0.237,1.054c-0.115,0.322-0.272,0.608-0.474,0.86
		C148.714,19.22,148.459,19.433,148.15,19.606z"/>
	<path class="st1" d="M157.297,20v-8.658h-3.617v-0.978h8.258v0.978h-3.618V20H157.297z"/>
	<path class="st1" d="M163.512,20v-9.636h0.996V20H163.512z"/>
	<path class="st1" d="M173.053,20l-2.305-3.923h-2.869V20h-1.003v-9.636h4.164c1.117,0,1.938,0.231,2.463,0.695
		c0.524,0.463,0.787,1.173,0.787,2.129c0,0.833-0.202,1.49-0.606,1.968s-1.027,0.77-1.869,0.876l2.33,3.967H173.053z
		 M167.879,15.138h3.174c0.343,0,0.65-0.03,0.924-0.089c0.272-0.059,0.504-0.161,0.695-0.305c0.189-0.144,0.336-0.338,0.438-0.584
		s0.152-0.557,0.152-0.933c0-0.373-0.05-0.682-0.149-0.93c-0.1-0.247-0.244-0.443-0.435-0.587c-0.194-0.144-0.432-0.246-0.711-0.305
		s-0.599-0.089-0.959-0.089h-3.129V15.138z"/>
	<path class="st1" d="M176.206,20v-9.636h6.373v0.978h-5.345v3.187h5.211v0.958h-5.211v3.58h5.396V20H176.206z"/>
	<path class="st1" d="M191.543,17.296c0,0.957-0.313,1.667-0.939,2.133c-0.627,0.465-1.596,0.698-2.908,0.698
		c-0.731,0-1.428-0.083-2.088-0.251c-0.66-0.167-1.295-0.452-1.904-0.854l0.521-0.774c0.288,0.182,0.575,0.334,0.863,0.457
		s0.575,0.222,0.863,0.298c0.283,0.076,0.568,0.131,0.854,0.165c0.286,0.034,0.575,0.051,0.866,0.051
		c0.496,0,0.924-0.036,1.286-0.108c0.361-0.072,0.661-0.184,0.897-0.336c0.233-0.152,0.405-0.348,0.518-0.587
		c0.112-0.239,0.168-0.523,0.168-0.854c0-0.343-0.068-0.618-0.206-0.825s-0.331-0.376-0.581-0.508
		c-0.249-0.127-0.551-0.229-0.904-0.308c-0.354-0.079-0.746-0.156-1.178-0.232c-0.347-0.059-0.674-0.122-0.98-0.187
		c-0.307-0.066-0.589-0.143-0.848-0.232c-0.258-0.089-0.489-0.195-0.694-0.317s-0.378-0.273-0.518-0.451
		c-0.144-0.178-0.254-0.387-0.33-0.628s-0.114-0.525-0.114-0.851c0-0.461,0.074-0.856,0.223-1.184
		c0.147-0.328,0.367-0.595,0.66-0.803c0.291-0.208,0.655-0.358,1.092-0.454c0.436-0.095,0.939-0.143,1.51-0.143
		c0.754,0,1.404,0.078,1.952,0.235s1.015,0.364,1.399,0.622l-0.545,0.832c-0.174-0.114-0.366-0.218-0.578-0.311
		s-0.436-0.173-0.673-0.241c-0.241-0.063-0.493-0.113-0.755-0.149c-0.263-0.036-0.529-0.054-0.801-0.054
		c-0.432,0-0.804,0.031-1.117,0.092c-0.312,0.061-0.568,0.157-0.768,0.289c-0.203,0.135-0.353,0.306-0.447,0.511
		c-0.096,0.205-0.143,0.449-0.143,0.733c0,0.305,0.061,0.554,0.184,0.749s0.301,0.354,0.533,0.476
		c0.232,0.127,0.518,0.23,0.854,0.311c0.337,0.081,0.721,0.159,1.152,0.235c0.524,0.093,1.01,0.192,1.453,0.298
		c0.445,0.106,0.828,0.254,1.149,0.444s0.572,0.444,0.752,0.762S191.543,16.78,191.543,17.296z"/>
</g>
</svg>
